<svg width="33" height="33" viewBox="0 0 33 33" fill="none" xmlns="http://www.w3.org/2000/svg">
<path d="M16.4998 1.31995C8.12396 1.31995 1.31982 8.12408 1.31982 16.4999C1.31982 24.8758 8.12396 31.6799 16.4998 31.6799C24.8757 31.6799 31.6798 24.8758 31.6798 16.4999C31.6798 8.12408 24.8757 1.31995 16.4998 1.31995ZM16.4998 2.63995C24.1623 2.63995 30.3598 8.83746 30.3598 16.4999C30.3598 24.1624 24.1623 30.3599 16.4998 30.3599C8.83734 30.3599 2.63982 24.1624 2.63982 16.4999C2.63982 8.83746 8.83734 2.63995 16.4998 2.63995ZM16.4895 4.61092C16.3147 4.61366 16.1481 4.68564 16.0263 4.81106C15.9045 4.93649 15.8374 5.10512 15.8398 5.27995V14.6347C15.454 14.7711 15.12 15.0237 14.8836 15.3577C14.6472 15.6917 14.5201 16.0907 14.5198 16.4999C14.5204 16.7949 14.5869 17.086 14.7145 17.352L10.7532 21.3133C10.6898 21.3741 10.6393 21.447 10.6044 21.5276C10.5696 21.6082 10.5512 21.6949 10.5503 21.7827C10.5494 21.8705 10.566 21.9576 10.5992 22.0389C10.6324 22.1202 10.6815 22.1941 10.7436 22.2562C10.8057 22.3183 10.8795 22.3674 10.9608 22.4005C11.0421 22.4337 11.1292 22.4504 11.217 22.4495C11.3048 22.4486 11.3916 22.4302 11.4722 22.3953C11.5528 22.3605 11.6256 22.3099 11.6865 22.2466L15.6478 18.2853C15.9137 18.4128 16.2048 18.4793 16.4998 18.4799C17.025 18.4799 17.5286 18.2713 17.8999 17.9C18.2712 17.5287 18.4798 17.0251 18.4798 16.4999C18.4793 16.091 18.352 15.6922 18.1157 15.3584C17.8793 15.0247 17.5454 14.7723 17.1598 14.636V5.27995C17.161 5.19165 17.1445 5.104 17.1112 5.0222C17.078 4.9404 17.0286 4.86611 16.9661 4.80372C16.9036 4.74134 16.8292 4.69213 16.7474 4.65901C16.6655 4.6259 16.5778 4.60954 16.4895 4.61092Z" fill="black"/>
</svg>
