<svg width="49" height="56" viewBox="0 0 49 56" fill="none" xmlns="http://www.w3.org/2000/svg">
<path d="M47.25 8.75H38.2397L34.5209 2.54297C33.4797 0.965453 31.8719 0 30.0344 0H18.9656C17.1281 0 15.4219 0.965453 14.4812 2.54297L10.7603 8.75H1.75C0.779297 8.75 0 9.52984 0 10.5V12.25C0 13.2234 0.779297 14 1.75 14H3.5V49C3.5 52.8664 6.63359 56 10.5 56H38.5C42.3664 56 45.5 52.8664 45.5 49V14H47.25C48.2234 14 49 13.2234 49 12.25V10.5C49 9.52984 48.2234 8.75 47.25 8.75ZM18.8016 5.565C18.9109 5.37359 19.1297 5.25 19.3594 5.25H29.6406C29.873 5.25 30.0918 5.37305 30.2012 5.56445L32.1125 8.75H16.8875L18.8016 5.565ZM38.5 50.75H10.5C9.53345 50.75 8.75 49.9665 8.75 49V14H40.25V49C40.25 49.9625 39.4625 50.75 38.5 50.75ZM24.5 45.5C25.4673 45.5 26.25 44.7173 26.25 43.75V21C26.25 20.0327 25.4673 19.25 24.5 19.25C23.5327 19.25 22.75 20.0375 22.75 21V43.75C22.75 44.7125 23.5375 45.5 24.5 45.5ZM15.75 45.5C16.7125 45.5 17.5 44.7125 17.5 43.75V21C17.5 20.0327 16.7173 19.25 15.75 19.25C14.7827 19.25 14 20.0375 14 21V43.75C14 44.7125 14.7875 45.5 15.75 45.5ZM33.25 45.5C34.2173 45.5 35 44.7173 35 43.75V21C35 20.0327 34.2173 19.25 33.25 19.25C32.2827 19.25 31.5 20.0375 31.5 21V43.75C31.5 44.7125 32.2875 45.5 33.25 45.5Z" fill="#A40E0E"/>
</svg>
