<svg width="131" height="131" viewBox="0 0 131 131" fill="none" xmlns="http://www.w3.org/2000/svg">
<g id="chef-hat-svgrepo-com 1" clip-path="url(#clip0_38_2)">
<g id="Group">
<g id="Group_2">
<path id="Vector" d="M109.483 89.9118L97.9894 70.1182L83.9927 35.9659C89.724 30.2896 91.5554 22.1046 87.908 15.8231C84.2394 9.5051 76.2019 6.97535 68.2958 9.27891C58.7248 2.58562 44.4044 2.63941 32.1743 9.74094C19.9429 16.8433 12.799 29.253 13.869 40.8828C7.94633 46.6091 6.16071 54.8424 9.82951 61.1607C13.5272 67.5288 21.7114 69.9654 29.5838 67.6441L52.2613 96.6711L63.7547 116.465L109.483 89.9118ZM102.161 87.9708L65.6933 109.146L59.0106 97.6374L95.4783 76.462L102.161 87.9708ZM14.4592 58.4724C11.6641 53.6586 13.9918 47.016 19.635 43.0465C17.258 33.0612 23.2713 21.1013 34.861 14.3716C46.4521 7.64111 59.8163 8.34702 67.3125 15.362C73.5544 12.4266 80.4799 13.7021 83.2741 18.5142C86.0872 23.3588 83.7131 30.0638 77.9851 34.02L92.2146 70.1531L55.1509 91.6746L31.1479 61.2462C24.7234 64.6437 17.3638 63.4745 14.4592 58.4724Z" fill="black"/>
<path id="Vector_2" d="M54.4708 77.883L54.6126 78.0663C55.1649 78.7868 56.1585 78.9659 56.9225 78.5222C56.9888 78.4837 57.054 78.4401 57.1164 78.3919C57.8348 77.8391 57.9864 76.8593 57.5445 76.0982C57.5043 76.0289 57.4911 75.9519 57.4407 75.8889L47.033 62.3721L43.2616 57.4738L42.4749 56.4544L42.3321 56.2695C41.731 55.4887 40.6087 55.3351 39.83 55.9469C39.3126 56.344 39.1049 56.9661 39.1755 57.5689C39.2024 57.8053 39.2774 58.0255 39.4022 58.2404C39.4415 58.3081 39.4547 58.3851 39.5052 58.4484L42.9185 62.8794L54.4708 77.883Z" fill="black"/>
<path id="Vector_3" d="M79.5892 65.3428C79.6636 65.3115 79.7322 65.2774 79.8001 65.238C80.5655 64.7936 80.8998 63.8435 80.5462 63.0076L80.4603 62.7918L73.1185 45.2292L71.0018 40.1634C70.9705 40.089 70.9102 40.0393 70.8709 39.9716C70.729 39.7272 70.5446 39.535 70.3189 39.3906C69.8424 39.0749 69.2368 38.968 68.6682 39.2055C67.746 39.5836 67.3263 40.6303 67.7082 41.5385L67.795 41.7559L68.2539 42.8516L70.6488 48.5865L77.2528 64.3868C77.2841 64.4613 77.3444 64.511 77.3845 64.58C77.8285 65.3377 78.7546 65.6917 79.5892 65.3428Z" fill="black"/>
<path id="Vector_4" d="M66.7127 70.7745C67.04 70.7854 67.3691 70.7419 67.6722 70.5659C67.9769 70.389 68.1791 70.1239 68.332 69.8343C68.6049 69.3077 68.6386 68.674 68.319 68.1235L61.5953 56.5441L58.901 51.9041L56.7366 48.1767L55.057 45.284C54.5611 44.4301 53.4724 44.1413 52.6169 44.638C51.763 45.1339 51.4741 46.2226 51.9699 47.0765L53.6496 49.9692L55.8199 53.7069L58.5133 58.3452L65.2318 69.9158C65.5516 70.4665 66.121 70.7522 66.7127 70.7745Z" fill="black"/>
</g>
</g>
</g>
<defs>
<clipPath id="clip0_38_2">
<rect width="108.151" height="108.151" fill="black" transform="translate(0 24.9374) rotate(-13.3312)"/>
</clipPath>
</defs>
</svg>
