<svg width="617" height="202" viewBox="0 0 617 202" fill="none" xmlns="http://www.w3.org/2000/svg">
<g filter="url(#filter0_d_43_2)">
<g clip-path="url(#clip0_43_2)">
<path d="M113.483 89.9118L101.989 70.1182L87.9927 35.9659C93.724 30.2896 95.5554 22.1046 91.908 15.8231C88.2394 9.5051 80.2019 6.97535 72.2958 9.27891C62.7248 2.58562 48.4044 2.63941 36.1743 9.74094C23.9429 16.8433 16.799 29.253 17.869 40.8828C11.9463 46.6091 10.1607 54.8424 13.8295 61.1607C17.5272 67.5288 25.7114 69.9654 33.5838 67.6441L56.2613 96.6711L67.7547 116.465L113.483 89.9118ZM106.161 87.9708L69.6933 109.146L63.0106 97.6374L99.4783 76.462L106.161 87.9708ZM18.4592 58.4724C15.6641 53.6586 17.9918 47.016 23.635 43.0465C21.258 33.0612 27.2713 21.1013 38.861 14.3716C50.4521 7.64111 63.8163 8.34702 71.3125 15.362C77.5544 12.4266 84.4799 13.7021 87.2741 18.5142C90.0872 23.3588 87.7131 30.0638 81.9851 34.02L96.2146 70.1531L59.1509 91.6746L35.1479 61.2462C28.7234 64.6437 21.3638 63.4745 18.4592 58.4724Z" fill="white"/>
<path d="M58.4708 77.883L58.6126 78.0663C59.1649 78.7868 60.1585 78.9659 60.9225 78.5222C60.9888 78.4837 61.054 78.4401 61.1164 78.3919C61.8348 77.8391 61.9864 76.8593 61.5445 76.0982C61.5043 76.0289 61.4911 75.9519 61.4407 75.8889L51.033 62.3721L47.2616 57.4738L46.4749 56.4544L46.3321 56.2695C45.731 55.4887 44.6087 55.3351 43.83 55.9469C43.3126 56.344 43.1049 56.9661 43.1755 57.5689C43.2024 57.8053 43.2774 58.0255 43.4022 58.2404C43.4415 58.3081 43.4547 58.3851 43.5052 58.4484L46.9185 62.8794L58.4708 77.883Z" fill="white"/>
<path d="M83.5892 65.3428C83.6636 65.3115 83.7322 65.2774 83.8001 65.238C84.5655 64.7936 84.8998 63.8435 84.5462 63.0076L84.4603 62.7918L77.1185 45.2292L75.0018 40.1634C74.9705 40.089 74.9102 40.0393 74.8709 39.9716C74.729 39.7272 74.5446 39.535 74.3189 39.3906C73.8424 39.0749 73.2368 38.968 72.6682 39.2055C71.746 39.5836 71.3263 40.6303 71.7082 41.5385L71.795 41.7559L72.2539 42.8516L74.6488 48.5865L81.2528 64.3868C81.2841 64.4613 81.3444 64.511 81.3845 64.58C81.8285 65.3377 82.7546 65.6917 83.5892 65.3428Z" fill="white"/>
<path d="M70.7127 70.7745C71.04 70.7854 71.3691 70.7419 71.6722 70.5659C71.9769 70.389 72.1791 70.1239 72.332 69.8343C72.6049 69.3077 72.6386 68.674 72.319 68.1235L65.5953 56.5441L62.901 51.9041L60.7366 48.1767L59.057 45.284C58.5611 44.4301 57.4724 44.1413 56.6169 44.638C55.763 45.1339 55.4741 46.2226 55.9699 47.0765L57.6496 49.9692L59.8199 53.7069L62.5133 58.3452L69.2318 69.9158C69.5516 70.4665 70.121 70.7522 70.7127 70.7745Z" fill="white"/>
</g>
<path d="M98.408 154.704L92.456 139.92L125 106.8H146.888L98.408 154.704ZM84.968 174V106.8H103.976V174H84.968ZM127.496 174L102.92 141.744L115.4 130.992L149.288 174H127.496ZM178.332 174.576C172.636 174.576 167.548 173.456 163.068 171.216C158.652 168.912 155.164 165.776 152.604 161.808C150.108 157.84 148.86 153.296 148.86 148.176V106.8H168.06V147.312C168.06 149.424 168.508 151.312 169.404 152.976C170.3 154.576 171.516 155.856 173.052 156.816C174.652 157.712 176.412 158.16 178.332 158.16C180.444 158.16 182.3 157.712 183.9 156.816C185.5 155.856 186.78 154.576 187.74 152.976C188.7 151.312 189.18 149.424 189.18 147.312V106.8H207.804V148.176C207.804 153.296 206.524 157.84 203.964 161.808C201.468 165.776 198.012 168.912 193.596 171.216C189.18 173.456 184.092 174.576 178.332 174.576ZM240.019 174.96C235.219 174.96 230.931 174.416 227.155 173.328C223.443 172.24 220.147 170.672 217.267 168.624C214.451 166.576 211.923 164.176 209.683 161.424L220.819 148.848C224.019 153.008 227.315 155.792 230.707 157.2C234.099 158.544 237.395 159.216 240.595 159.216C242.003 159.216 243.283 159.088 244.435 158.832C245.587 158.512 246.451 158.032 247.027 157.392C247.667 156.688 247.987 155.824 247.987 154.8C247.987 153.904 247.731 153.136 247.219 152.496C246.707 151.856 246.003 151.312 245.107 150.864C244.211 150.352 243.219 149.904 242.131 149.52C241.043 149.136 239.955 148.848 238.867 148.656C237.779 148.4 236.723 148.144 235.699 147.888C231.923 147.056 228.627 146 225.811 144.72C222.995 143.44 220.627 141.936 218.707 140.208C216.851 138.416 215.443 136.368 214.483 134.064C213.587 131.76 213.139 129.168 213.139 126.288C213.139 123.152 213.875 120.272 215.347 117.648C216.819 115.024 218.771 112.784 221.203 110.928C223.635 109.008 226.419 107.568 229.555 106.608C232.755 105.584 236.083 105.072 239.539 105.072C244.275 105.072 248.307 105.552 251.635 106.512C254.963 107.408 257.747 108.72 259.987 110.448C262.291 112.176 264.275 114.192 265.939 116.496L254.611 127.44C253.267 125.968 251.795 124.752 250.195 123.792C248.659 122.832 247.059 122.128 245.395 121.68C243.731 121.168 242.035 120.912 240.307 120.912C238.707 120.912 237.299 121.072 236.083 121.392C234.931 121.712 234.035 122.192 233.395 122.832C232.755 123.408 232.435 124.208 232.435 125.232C232.435 126.128 232.787 126.928 233.491 127.632C234.195 128.272 235.091 128.816 236.179 129.264C237.267 129.712 238.419 130.096 239.635 130.416C240.915 130.672 242.067 130.896 243.091 131.088C246.611 131.792 249.811 132.72 252.691 133.872C255.635 134.96 258.195 136.368 260.371 138.096C262.547 139.76 264.211 141.808 265.363 144.24C266.515 146.672 267.091 149.52 267.091 152.784C267.091 157.584 265.875 161.648 263.443 164.976C261.075 168.24 257.843 170.736 253.747 172.464C249.715 174.128 245.139 174.96 240.019 174.96ZM313.142 174V106.8H332.15V174H313.142ZM272.438 174V106.8H291.446V174H272.438ZM279.638 148.848L279.734 132.144H323.606V148.848H279.638ZM342.334 174V106.8H359.326L391.966 151.536L388.03 150.576C387.71 148.208 387.422 146.064 387.166 144.144C386.974 142.224 386.782 140.4 386.59 138.672C386.462 136.944 386.334 135.216 386.206 133.488C386.142 131.76 386.11 129.872 386.11 127.824C386.11 125.776 386.11 123.472 386.11 120.912V106.8H404.446V174H387.262L352.126 126L358.75 127.632C359.07 130.256 359.326 132.528 359.518 134.448C359.774 136.368 359.966 138.096 360.094 139.632C360.222 141.168 360.318 142.64 360.382 144.048C360.51 145.456 360.574 146.96 360.574 148.56C360.638 150.16 360.67 151.984 360.67 154.032V174H342.334ZM405.548 174L432.332 106.8H447.692L474.284 174H455.372L443.852 142.8C443.212 141.072 442.636 139.472 442.124 138C441.612 136.528 441.132 135.088 440.684 133.68C440.236 132.272 439.788 130.832 439.34 129.36C438.956 127.888 438.604 126.288 438.284 124.56L441.356 124.464C440.972 126.32 440.556 127.984 440.108 129.456C439.724 130.928 439.308 132.336 438.86 133.68C438.412 135.024 437.9 136.432 437.324 137.904C436.812 139.376 436.236 141.008 435.596 142.8L424.076 174H405.548ZM418.604 162.864L424.268 149.424H455.372L460.652 162.864H418.604ZM480.369 175.056C477.489 175.056 475.249 174.256 473.649 172.656C472.113 171.056 471.345 168.784 471.345 165.84C471.345 163.152 472.177 160.944 473.841 159.216C475.505 157.488 477.681 156.624 480.369 156.624C483.185 156.624 485.393 157.424 486.993 159.024C488.593 160.624 489.393 162.896 489.393 165.84C489.393 168.528 488.561 170.736 486.897 172.464C485.233 174.192 483.057 175.056 480.369 175.056ZM494.628 174V158.448H506.34V122.352H494.628V106.8H536.964V122.352H525.348V158.448H536.964V174H494.628ZM576.63 174.96C571.446 174.96 566.678 174.096 562.326 172.368C557.974 170.64 554.198 168.208 550.998 165.072C547.798 161.936 545.302 158.256 543.51 154.032C541.782 149.744 540.918 145.072 540.918 140.016C540.918 134.896 541.782 130.224 543.51 126C545.302 121.776 547.798 118.096 550.998 114.96C554.198 111.824 557.974 109.392 562.326 107.664C566.678 105.936 571.446 105.072 576.63 105.072C581.814 105.072 586.55 105.936 590.838 107.664C595.19 109.392 598.966 111.824 602.166 114.96C605.43 118.096 607.926 121.776 609.654 126C611.382 130.224 612.246 134.864 612.246 139.92C612.246 145.04 611.382 149.744 609.654 154.032C607.926 158.256 605.43 161.936 602.166 165.072C598.966 168.208 595.19 170.64 590.838 172.368C586.55 174.096 581.814 174.96 576.63 174.96ZM576.63 157.296C578.934 157.296 581.078 156.88 583.062 156.048C585.046 155.216 586.774 154.032 588.246 152.496C589.718 150.896 590.838 149.04 591.606 146.928C592.438 144.816 592.854 142.512 592.854 140.016C592.854 137.52 592.438 135.216 591.606 133.104C590.838 130.992 589.718 129.168 588.246 127.632C586.774 126.032 585.046 124.816 583.062 123.984C581.078 123.152 578.934 122.736 576.63 122.736C574.262 122.736 572.086 123.152 570.102 123.984C568.118 124.816 566.39 126.032 564.918 127.632C563.446 129.168 562.294 130.992 561.462 133.104C560.694 135.152 560.31 137.456 560.31 140.016C560.31 142.512 560.694 144.816 561.462 146.928C562.294 149.04 563.446 150.896 564.918 152.496C566.39 154.032 568.118 155.216 570.102 156.048C572.086 156.88 574.262 157.296 576.63 157.296Z" fill="white"/>
</g>
<defs>
<filter id="filter0_d_43_2" x="0" y="0" width="616.246" height="201.056" filterUnits="userSpaceOnUse" color-interpolation-filters="sRGB">
<feFlood flood-opacity="0" result="BackgroundImageFix"/>
<feColorMatrix in="SourceAlpha" type="matrix" values="0 0 0 0 0 0 0 0 0 0 0 0 0 0 0 0 0 0 127 0" result="hardAlpha"/>
<feOffset dy="22"/>
<feGaussianBlur stdDeviation="2"/>
<feComposite in2="hardAlpha" operator="out"/>
<feColorMatrix type="matrix" values="0 0 0 0 0 0 0 0 0 0 0 0 0 0 0 0 0 0 0.25 0"/>
<feBlend mode="normal" in2="BackgroundImageFix" result="effect1_dropShadow_43_2"/>
<feBlend mode="normal" in="SourceGraphic" in2="effect1_dropShadow_43_2" result="shape"/>
</filter>
<clipPath id="clip0_43_2">
<rect width="108.151" height="108.151" fill="white" transform="translate(4 24.9374) rotate(-13.3312)"/>
</clipPath>
</defs>
</svg>
