<svg width="555" height="157" viewBox="0 0 555 157" fill="none" xmlns="http://www.w3.org/2000/svg">
<g clip-path="url(#clip0_89_13)">
<path d="M88.3274 67.98L78.7511 53.0249L66.8906 27.3232C71.3589 23.1926 72.6609 17.1238 69.6219 12.3778C66.5651 7.60422 60.0917 5.57771 53.8187 7.15615C46.0375 1.99935 34.5938 1.78842 24.9599 6.86736C15.3249 11.9469 9.86055 21.0716 10.9454 29.7589C6.32512 33.9233 5.06066 40.0289 8.1175 44.8028C11.1984 49.6142 17.7873 51.5738 24.033 49.9816L42.7299 72.0152L52.3062 86.9704L88.3274 67.98ZM82.4376 66.4049L53.711 81.5493L48.143 72.8538L76.8695 57.7093L82.4376 66.4049ZM11.7644 42.8801C9.43551 39.2431 11.1647 34.3326 15.5963 31.4727C13.4994 23.9882 18.069 15.1791 27.1985 10.366C36.3291 5.55247 47.0236 6.3129 53.153 11.6731C58.0835 9.59458 63.6435 10.6667 65.9716 14.3025C68.3155 17.9629 66.5506 22.919 62.0509 25.7674L74.1366 52.9497L44.9405 68.3416L25.1566 45.2402C20.0894 47.66 14.1845 46.6595 11.7644 42.8801Z" fill="#FAC10E"/>
<path d="M43.7988 58.1839L43.9137 58.3218C44.361 58.864 45.1419 59.0155 45.7298 58.7031C45.7808 58.676 45.8308 58.6451 45.8787 58.6107C46.4285 58.2169 46.5261 57.4972 46.1641 56.9272C46.1312 56.8753 46.1192 56.8183 46.0784 56.7708L37.6489 46.5982L34.5943 42.9118L33.9572 42.1446L33.8415 42.0054C33.3547 41.4178 32.4737 41.2827 31.8779 41.7188C31.4818 42.0016 31.3328 42.4565 31.401 42.9025C31.4271 43.0773 31.4905 43.2412 31.5927 43.4022C31.6249 43.4528 31.6369 43.5099 31.6778 43.5576L34.4422 46.8923L43.7988 58.1839Z" fill="#FAC10E"/>
<path d="M64.0064 48.7862C64.064 48.7646 64.1169 48.7408 64.1692 48.7131C64.7582 48.4001 64.9991 47.7058 64.7046 47.0824L64.6328 46.9216L58.5139 33.8244L56.7496 30.0466C56.7235 29.9911 56.6753 29.9533 56.6431 29.9026C56.5269 29.7196 56.3786 29.5742 56.199 29.4633C55.8195 29.2212 55.3436 29.1305 54.9041 29.2947C54.191 29.5556 53.8854 30.3195 54.2035 30.9968L54.2761 31.1589L54.6585 31.976L56.6546 36.2527L62.1588 48.0357C62.1849 48.0912 62.2331 48.129 62.266 48.1807C62.6294 48.7482 63.3613 49.0274 64.0064 48.7862Z" fill="#FAC10E"/>
<path d="M53.6187 52.8455C53.872 52.8603 54.1254 52.8353 54.3557 52.7122C54.5872 52.5884 54.7375 52.3977 54.849 52.1879C55.0479 51.8064 55.0595 51.341 54.7997 50.9294L49.3365 42.2718L47.1473 38.8026L45.3887 36.0157L44.0239 33.8529C43.621 33.2145 42.7727 32.9792 42.1227 33.3266C41.474 33.6734 41.2757 34.4681 41.6785 35.1065L43.0433 37.2693L44.8068 40.0638L46.9952 43.5318L52.4543 52.1828C52.7141 52.5946 53.1608 52.8166 53.6187 52.8455Z" fill="#FAC10E"/>
</g>
<path d="M86.9884 112.857L82.6484 102.077L106.378 77.9269H122.338L86.9884 112.857ZM77.1884 126.927V77.9269H91.0484V126.927H77.1884ZM108.198 126.927L90.2784 103.407L99.3784 95.5669L124.088 126.927H108.198ZM145.266 127.347C141.113 127.347 137.403 126.53 134.136 124.897C130.916 123.217 128.373 120.93 126.506 118.037C124.686 115.144 123.776 111.83 123.776 108.097V77.9269H137.776V107.467C137.776 109.007 138.103 110.384 138.756 111.597C139.409 112.764 140.296 113.697 141.416 114.397C142.583 115.05 143.866 115.377 145.266 115.377C146.806 115.377 148.159 115.05 149.326 114.397C150.493 113.697 151.426 112.764 152.126 111.597C152.826 110.384 153.176 109.007 153.176 107.467V77.9269H166.756V108.097C166.756 111.83 165.823 115.144 163.956 118.037C162.136 120.93 159.616 123.217 156.396 124.897C153.176 126.53 149.466 127.347 145.266 127.347ZM190.247 127.627C186.747 127.627 183.62 127.23 180.867 126.437C178.16 125.644 175.757 124.5 173.657 123.007C171.603 121.514 169.76 119.764 168.127 117.757L176.247 108.587C178.58 111.62 180.983 113.65 183.457 114.677C185.93 115.657 188.333 116.147 190.667 116.147C191.693 116.147 192.627 116.054 193.467 115.867C194.307 115.634 194.937 115.284 195.357 114.817C195.823 114.304 196.057 113.674 196.057 112.927C196.057 112.274 195.87 111.714 195.497 111.247C195.123 110.78 194.61 110.384 193.957 110.057C193.303 109.684 192.58 109.357 191.787 109.077C190.993 108.797 190.2 108.587 189.407 108.447C188.613 108.26 187.843 108.074 187.097 107.887C184.343 107.28 181.94 106.51 179.887 105.577C177.833 104.644 176.107 103.547 174.707 102.287C173.353 100.98 172.327 99.4869 171.627 97.8069C170.973 96.1269 170.647 94.2369 170.647 92.1369C170.647 89.8502 171.183 87.7502 172.257 85.8369C173.33 83.9235 174.753 82.2902 176.527 80.9369C178.3 79.5369 180.33 78.4869 182.617 77.7869C184.95 77.0402 187.377 76.6669 189.897 76.6669C193.35 76.6669 196.29 77.0169 198.717 77.7169C201.143 78.3702 203.173 79.3269 204.807 80.5869C206.487 81.8469 207.933 83.3169 209.147 84.9969L200.887 92.9769C199.907 91.9035 198.833 91.0169 197.667 90.3169C196.547 89.6169 195.38 89.1035 194.167 88.7769C192.953 88.4035 191.717 88.2169 190.457 88.2169C189.29 88.2169 188.263 88.3335 187.377 88.5669C186.537 88.8002 185.883 89.1502 185.417 89.6169C184.95 90.0369 184.717 90.6202 184.717 91.3669C184.717 92.0202 184.973 92.6035 185.487 93.1169C186 93.5835 186.653 93.9802 187.447 94.3069C188.24 94.6335 189.08 94.9135 189.967 95.1469C190.9 95.3335 191.74 95.4969 192.487 95.6369C195.053 96.1502 197.387 96.8269 199.487 97.6669C201.633 98.4602 203.5 99.4869 205.087 100.747C206.673 101.96 207.887 103.454 208.727 105.227C209.567 107 209.987 109.077 209.987 111.457C209.987 114.957 209.1 117.92 207.327 120.347C205.6 122.727 203.243 124.547 200.257 125.807C197.317 127.02 193.98 127.627 190.247 127.627ZM243.565 126.927V77.9269H257.425V126.927H243.565ZM213.885 126.927V77.9269H227.745V126.927H213.885ZM219.135 108.587L219.205 96.4069H251.195V108.587H219.135ZM264.851 126.927V77.9269H277.241L301.041 110.547L298.171 109.847C297.938 108.12 297.728 106.557 297.541 105.157C297.401 103.757 297.261 102.427 297.121 101.167C297.028 99.9069 296.935 98.6469 296.841 97.3869C296.795 96.1269 296.771 94.7502 296.771 93.2569C296.771 91.7635 296.771 90.0835 296.771 88.2169V77.9269H310.141V126.927H297.611L271.991 91.9269L276.821 93.1169C277.055 95.0302 277.241 96.6869 277.381 98.0869C277.568 99.4869 277.708 100.747 277.801 101.867C277.895 102.987 277.965 104.06 278.011 105.087C278.105 106.114 278.151 107.21 278.151 108.377C278.198 109.544 278.221 110.874 278.221 112.367V126.927H264.851ZM310.945 126.927L330.475 77.9269H341.675L361.065 126.927H347.275L338.875 104.177C338.408 102.917 337.988 101.75 337.615 100.677C337.241 99.6035 336.891 98.5535 336.565 97.5269C336.238 96.5002 335.911 95.4502 335.585 94.3769C335.305 93.3035 335.048 92.1369 334.815 90.8769L337.055 90.8069C336.775 92.1602 336.471 93.3735 336.145 94.4469C335.865 95.5202 335.561 96.5469 335.235 97.5269C334.908 98.5069 334.535 99.5335 334.115 100.607C333.741 101.68 333.321 102.87 332.855 104.177L324.455 126.927H310.945ZM320.465 118.807L324.595 109.007H347.275L351.125 118.807H320.465ZM365.501 127.697C363.401 127.697 361.768 127.114 360.601 125.947C359.481 124.78 358.921 123.124 358.921 120.977C358.921 119.017 359.528 117.407 360.741 116.147C361.955 114.887 363.541 114.257 365.501 114.257C367.555 114.257 369.165 114.84 370.331 116.007C371.498 117.174 372.081 118.83 372.081 120.977C372.081 122.937 371.475 124.547 370.261 125.807C369.048 127.067 367.461 127.697 365.501 127.697ZM375.899 126.927V115.587H384.439V89.2669H375.899V77.9269H406.769V89.2669H398.299V115.587H406.769V126.927H375.899ZM435.692 127.627C431.912 127.627 428.436 126.997 425.262 125.737C422.089 124.477 419.336 122.704 417.002 120.417C414.669 118.13 412.849 115.447 411.542 112.367C410.282 109.24 409.652 105.834 409.652 102.147C409.652 98.4135 410.282 95.0069 411.542 91.9269C412.849 88.8469 414.669 86.1635 417.002 83.8769C419.336 81.5902 422.089 79.8169 425.262 78.5569C428.436 77.2969 431.912 76.6669 435.692 76.6669C439.472 76.6669 442.926 77.2969 446.052 78.5569C449.226 79.8169 451.979 81.5902 454.312 83.8769C456.692 86.1635 458.512 88.8469 459.772 91.9269C461.032 95.0069 461.662 98.3902 461.662 102.077C461.662 105.81 461.032 109.24 459.772 112.367C458.512 115.447 456.692 118.13 454.312 120.417C451.979 122.704 449.226 124.477 446.052 125.737C442.926 126.997 439.472 127.627 435.692 127.627ZM435.692 114.747C437.372 114.747 438.936 114.444 440.382 113.837C441.829 113.23 443.089 112.367 444.162 111.247C445.236 110.08 446.052 108.727 446.612 107.187C447.219 105.647 447.522 103.967 447.522 102.147C447.522 100.327 447.219 98.6469 446.612 97.1069C446.052 95.5669 445.236 94.2369 444.162 93.1169C443.089 91.9502 441.829 91.0635 440.382 90.4569C438.936 89.8502 437.372 89.5469 435.692 89.5469C433.966 89.5469 432.379 89.8502 430.932 90.4569C429.486 91.0635 428.226 91.9502 427.152 93.1169C426.079 94.2369 425.239 95.5669 424.632 97.1069C424.072 98.6002 423.792 100.28 423.792 102.147C423.792 103.967 424.072 105.647 424.632 107.187C425.239 108.727 426.079 110.08 427.152 111.247C428.226 112.367 429.486 113.23 430.932 113.837C432.379 114.444 433.966 114.747 435.692 114.747Z" fill="#FAC10E"/>
<defs>
<clipPath id="clip0_89_13">
<rect width="86.4359" height="81.1002" fill="white" transform="matrix(0.976511 -0.215469 0.246623 0.969112 0 18.6242)"/>
</clipPath>
</defs>
</svg>
