<svg width="23" height="20" viewBox="0 0 23 20" fill="#ff2a2a" xmlns="http://www.w3.org/2000/svg">
<path d="M12.5654 2.08887C14.7432 0.0367367 18.2573 -0.0274793 20.5186 1.89648L20.7334 2.08887C22.8911 4.21816 22.9076 7.45448 20.9199 9.66309L20.7207 9.87305L20.7197 9.87402L11.4404 19.3115L2.16211 9.87402L2.16113 9.87305L1.96191 9.66309C0.0363437 7.52323 -0.00831865 4.41873 1.95312 2.29102L2.15625 2.08105C3.26405 0.991977 4.73496 0.525428 6.23242 0.525391C7.63659 0.525391 9.0173 0.93556 10.0977 1.88477L10.3096 2.08203L11.083 2.87402L11.4414 3.24023L11.7988 2.87402L12.5654 2.08887Z" stroke="#ff2a2a"/>
</svg>
